<svg width="24" height="24" viewBox="0 0 24 24" fill="none" xmlns="http://www.w3.org/2000/svg">
<path d="M1.9993 11.9993C1.9993 17.5221 6.4764 21.9993 11.9993 21.9993C17.5221 21.9993 21.9993 17.5221 21.9993 11.9993C21.9993 6.4764 17.5221 1.9993 11.9993 1.9993C6.4764 1.9993 1.9993 6.4764 1.9993 11.9993ZM16.53 11.7192C16.7962 11.9854 16.8204 12.4021 16.6026 12.6957L16.53 12.7798L12.5291 16.7806C12.2628 17.0469 11.8461 17.0711 11.5525 16.8532L11.4684 16.7805L7.4684 12.779C7.1755 12.4861 7.1756 12.0112 7.4686 11.7183C7.7349 11.4521 8.1516 11.428 8.4451 11.6459L8.5292 11.7186L11.2499 14.4405L11.2496 7.7488C11.2496 7.3691 11.5318 7.0553 11.8979 7.0056L11.9996 6.9988C12.3793 6.9988 12.6931 7.2809 12.7428 7.647L12.7496 7.7488L12.7499 14.4385L15.4693 11.7192C15.7356 11.4529 16.1522 11.4287 16.4458 11.6465L16.53 11.7192Z" fill="#212121"/>
</svg>
