<svg width="125" height="125" viewBox="0 0 125 125" fill="none" xmlns="http://www.w3.org/2000/svg">
<g clip-path="url(#clip0)">
<path d="M124.63 57.4144L102.413 11.8235C101.8 10.5642 100.522 9.76565 99.1213 9.76565H25.8789C24.4783 9.76565 23.2005 10.5645 22.5869 11.8235L0.370111 57.4144C-0.149421 58.4808 -0.120368 59.7328 0.447992 60.7738C1.01635 61.8148 2.05395 62.5162 3.23193 62.6554C6.35108 63.0243 9.4004 63.079 12.4512 62.8407V111.572C12.4512 113.595 14.0908 115.235 16.1133 115.235C20.9341 115.235 105.729 115.235 108.887 115.235C110.909 115.235 112.549 113.595 112.549 111.572V62.8422C115.604 63.0807 118.69 63.0192 121.768 62.6552C122.946 62.516 123.984 61.8146 124.552 60.7736C125.12 59.7325 125.15 58.4806 124.63 57.4144ZM74.6366 17.0899L85.213 47.1139C74.6947 58.5702 50.1903 58.4442 39.7872 47.1139L50.3636 17.0899H74.6366ZM9.37696 55.6507L28.168 17.0899H42.5982L32.3838 46.086C27.1748 52.6861 17.8194 55.5275 9.37696 55.6507ZM44.1895 107.91H19.7754V96.924H44.1895V107.91ZM73.4865 107.91H51.5138V78.6134H73.4865V107.91ZM105.225 107.91H80.8107V96.924H105.225V107.91ZM105.225 89.5998H80.8107V74.9513C80.8107 72.9289 79.171 71.2892 77.1486 71.2892H47.8516C45.8292 71.2892 44.1895 72.9289 44.1895 74.9513V89.5998H19.7754V61.6749C25.5796 60.2523 31.2806 57.5409 35.6456 53.3573C49.0731 66.2177 75.9481 66.1974 89.3547 53.3573C93.6816 57.5043 99.3581 60.2369 105.225 61.6749V89.5998ZM92.6161 46.0855L82.4018 17.0899H96.832L115.623 55.651C107.211 55.527 97.8449 52.7108 92.6161 46.0855Z" fill="white"/>
</g>
<defs>
<clipPath id="clip0">
<rect width="125" height="125" fill="white"/>
</clipPath>
</defs>
</svg>
